<svg xmlns="http://www.w3.org/2000/svg" width="44.278mm" height="44.082001mm" viewBox="0 0 44.278 44.082001"><g style="display:inline"><path d="M0 0h-97.219c-7.816 0-14.146 6.302-14.146 14.083v96.787c0 7.779 6.33 14.087 14.146 14.087H0c7.814 0 14.148-6.308 14.148-14.087V14.083C14.148 6.302 7.814 0 0 0" style="fill:#d92c35;fill-opacity:1;fill-rule:nonzero;stroke:none" transform="matrix(.35278 0 0 -.35278 39.287 44.082)"/></g><path d="M0 0a1.93 1.93 0 0 0 1.934 1.923h9.941A1.93 1.93 0 0 0 13.809 0v-15.069a1.93 1.93 0 0 0-1.934-1.923H1.934A1.93 1.93 0 0 0 0-15.069v.823zm30.894 17.762h-48.099a1.93 1.93 0 0 1-1.934-1.923v-43.364a3.855 3.855 0 0 1 3.854-3.854h29.32v-20.739H.334v11.274h-18.795v-25.582c0-1.062.865-1.923 1.932-1.923h47.424c1.066 0 1.931.861 1.931 1.923v82.265a1.93 1.93 0 0 1-1.932 1.923" style="fill:#fff;fill-opacity:1;fill-rule:nonzero;stroke:none" transform="matrix(.35278 0 0 -.35278 25.338 13.118)"/><path d="M9.38 37.229v-21.91H6.943L10.1 6.852h6.109V37.23Z" style="fill:#fff;fill-opacity:1;fill-rule:nonzero;stroke:none;stroke-width:.352778"/></svg>